<svg xmlns="http://www.w3.org/2000/svg" width="19" height="17" viewBox="0 0 19 17">
    <g id="svg" fill-rule="nonzero">
        <path d="M13.2.1c-.7 0-1.3.6-1.3 1.3v3.3c0 .7.6 1.3 1.3 1.3.7 0 1.3-.6 1.3-1.3V1.4c0-.7-.6-1.3-1.3-1.3z"/>
        <g>
            <path d="M17.2 3.6h-1.7v1.1c0 1.3-1.1 2.4-2.4 2.4-1.3 0-2.4-1.1-2.4-2.4V3.6H8.1v1.1C8.1 6 7 7.1 5.7 7.1 4.5 7.1 3.4 6 3.4 4.7V3.6H1.8C.9 3.6.2 4.3.2 5.2v10c0 .9.7 1.6 1.6 1.6h15.5c.9 0 1.6-.7 1.6-1.6v-10c0-.9-.8-1.6-1.7-1.6z"/>
            <path d="M5.8.1c-.7 0-1.3.6-1.3 1.3v3.3c0 .7.6 1.3 1.3 1.3.7 0 1.3-.6 1.3-1.3V1.4C7.1.7 6.5.1 5.8.1z"/>
        </g>
        <path fill="#FFF" d="M14.6 11h-11c-.3 0-.5-.2-.5-.5s.2-.5.5-.5h11c.3 0 .5.2.5.5s-.2.5-.5.5zM14.6 14h-11c-.3 0-.5-.2-.5-.5s.2-.5.5-.5h11c.3 0 .5.2.5.5s-.2.5-.5.5z"/>
    </g>
</svg>
