<?xml version="1.0" encoding="UTF-8"?>
<svg width="17px" height="17px" viewBox="0 0 17 17" version="1.1" xmlns="http://www.w3.org/2000/svg" xmlns:xlink="http://www.w3.org/1999/xlink">
    <!-- Generator: Sketch 49.1 (51147) - http://www.bohemiancoding.com/sketch -->
    <title>money (1)</title>
    <desc>Created with Sketch.</desc>
    <defs></defs>
    <g id="🛠-Symbols" stroke="none" stroke-width="1" fill="none" fill-rule="evenodd">
        <g id="money" transform="translate(-45.000000, -199.000000)" fill-rule="nonzero">
            <g id="Group-17">
                <g id="Group-13" transform="translate(30.000000, 68.000000)">
                    <g id="Group-2">
                        <g id="Group-7-Copy-5" transform="translate(0.000000, 114.000000)">
                            <g id="_money" transform="translate(15.000000, 17.000000)">
                                <circle id="Oval" cx="8.5" cy="8.5" r="8.5"></circle>
                                <path d="M8.7,5.4 C9.1,5.4 9.3,5.5 9.5,5.8 C9.7,6.1 9.8,6.4 9.8,6.9 L11.6,6.9 C11.6,6.1 11.4,5.4 11,5 C10.5,4.5 10,4.1 9.2,4 L9.2,2.7 L8.2,2.7 L8.2,4 C7.5,4.1 6.9,4.4 6.5,4.8 C6,5.1 5.8,5.8 5.8,6.4 C5.8,6.8 5.9,7.1 6,7.4 C6.1,7.7 6.3,8 6.6,8.2 C6.7,8.4 7,8.5 7.4,8.7 C7.7,8.9 8.1,9.1 8.5,9.2 C9,9.4 9.2,9.6 9.4,9.8 C9.6,10 9.7,10.3 9.7,10.6 C9.7,10.9 9.6,11.2 9.4,11.3 C9.2,11.5 8.9,11.6 8.6,11.6 C8.1,11.6 7.9,11.5 7.6,11.2 C7.4,10.9 7.2,10.6 7.2,10.1 L5.5,10.1 C5.5,10.9 5.7,11.6 6.1,12.1 C6.6,12.6 7.2,12.9 8,13 L8,14.2 L9,14.2 L9,13 C9.7,12.9 10.4,12.6 10.8,12.3 C11.3,11.8 11.4,11.3 11.4,10.6 C11.4,10.2 11.3,9.9 11.2,9.6 C11.1,9.3 10.9,9 10.7,8.9 C10.5,8.8 10.2,8.5 9.9,8.3 C9.6,8.1 9.1,8 8.7,7.8 C8.2,7.6 7.9,7.4 7.7,7.2 C7.5,7.1 7.4,6.8 7.4,6.5 C7.4,6.1 7.5,5.9 7.7,5.8 C8.1,5.5 8.4,5.4 8.7,5.4 Z" id="Shape" fill="#FFFFFF"></path>
                            </g>
                        </g>
                    </g>
                </g>
            </g>
        </g>
    </g>
</svg>
