<svg xmlns="http://www.w3.org/2000/svg" width="25" height="36" viewBox="0 0 25 36">
    <g fill="#9394FF" fill-rule="nonzero">
        <path d="M12.5 0C5.635 0 .05 5.673.05 12.645v10.07c0 6.972 5.585 12.644 12.45 12.644 6.865 0 12.45-5.655 12.45-12.606V12.645C24.95 5.673 19.365 0 12.5 0zm10.108 22.753c0 5.66-4.534 10.264-10.108 10.264-5.574 0-10.108-4.622-10.108-10.303V12.645c0-5.681 4.534-10.303 10.108-10.303 5.574 0 10.108 4.622 10.108 10.303v10.108z"/>
        <path d="M12.5 9.679a1.17 1.17 0 0 0-1.17 1.17v4.099a1.17 1.17 0 1 0 2.34 0V10.85a1.17 1.17 0 0 0-1.17-1.171z"/>
    </g>
</svg>
