<svg xmlns="http://www.w3.org/2000/svg" width="19" height="17" viewBox="0 0 19 17">
    <g id="svg" fill-rule="nonzero">>
        <path d="M6.755 6.521s-2.839 1.6-2.937 5.196c0 .2-.391.4-.587.2-.98-.9-2.448-3.097.196-6.095 0 0-1.763 0-2.937.8-.196.199-.49-.1-.49-.4.392-1.4 1.566-3.898 5.58-4.197 0 0 1.665-3.698 6.266-1.1.196.1.196.5 0 .6-.685.3-1.664.9-1.86 1.599 0 0 3.818-.3 4.014 3.697 0 .3-.294.5-.49.3-1.174-.8-3.818-2.298-6.755-.6z"/>
        <path d="M6.045 5.087c.433-.196.433 0 .541 0l.325.295c.217.197.433.394.65.492.216.197.433.393.541.59.217.196.433.393.541.59.65.786 1.3 1.77 1.841 2.752.433.983.866 1.967 1.083 3.048l.108.393.108.394.109.786C12 14.919 12 15.508 12 16H9.51v-2.851l-.109-.688c0-.197-.108-.492-.108-.688l-.325-1.475c-.325-.885-.65-1.77-1.19-2.654-.109-.197-.217-.394-.434-.59-.108-.197-.325-.394-.433-.59-.108-.197-.325-.393-.541-.59 0-.098-.109-.197-.217-.295-.108-.098-.216-.098-.108-.492z"/>
        <path d="M18.495 17c.492 0 .69-.62.295-.931C17.51 15.034 14.751 14 11.5 14c-3.251 0-6.01 1.034-7.29 2.069-.394.31-.197.931.295.931z"/>
    </g>
</svg>