<svg width="6" height="9" xmlns="http://www.w3.org/2000/svg">

 <g>
  <title>background</title>
  <rect fill="none" id="canvas_background" height="402" width="582" y="-1" x="-1"/>
 </g>
 <g>
  <title>Layer 1</title>
  <path transform="rotate(-180 2.5715000629425053,4.500000476837158) " id="svg_1" d="m5.143,4.5a0.314,0.314 0 0 1 -0.089,0.207l-4.117,4.203a0.302,0.302 0 0 1 -0.204,0.09a0.302,0.302 0 0 1 -0.203,-0.09l-0.442,-0.451a0.296,0.296 0 0 1 -0.088,-0.207c0,-0.073 0.035,-0.154 0.088,-0.208l3.473,-3.544l-3.473,-3.544a0.314,0.314 0 0 1 -0.088,-0.208c0,-0.072 0.035,-0.153 0.088,-0.207l0.442,-0.45a0.302,0.302 0 0 1 0.203,-0.091c0.071,0 0.15,0.036 0.204,0.09l4.117,4.203a0.314,0.314 0 0 1 0.089,0.207z" fill-rule="evenodd" fill="#91a1b1"/>
 </g>
</svg>