<svg xmlns="http://www.w3.org/2000/svg" width="11" height="11" viewBox="0 0 11 11">
    <path fill="#91A1B1" fill-rule="nonzero" d="M9.251.066a.227.227 0 0 0-.32 0l-3.27 3.27a.227.227 0 0 1-.321 0L2.07.066a.227.227 0 0 0-.321 0L.066 1.75a.227.227 0 0 0 0 .32l3.27 3.27a.227.227 0 0 1 0 .321L.066 8.93a.227.227 0 0 0 0 .321l1.683 1.683a.227.227 0 0 0 .32 0l3.27-3.27a.227.227 0 0 1 .321 0l3.27 3.27a.227.227 0 0 0 .321 0l1.683-1.683a.227.227 0 0 0 0-.32l-3.27-3.27a.227.227 0 0 1 0-.321l3.27-3.27a.227.227 0 0 0 0-.321L9.25.066z"/>
</svg>
