<?xml version="1.0" encoding="UTF-8"?>
<svg width="15px" height="15px" viewBox="0 0 15 15" version="1.1" xmlns="http://www.w3.org/2000/svg" xmlns:xlink="http://www.w3.org/1999/xlink">
    <!-- Generator: Sketch 52.6 (67491) - http://www.bohemiancoding.com/sketch -->
    <title>Shape</title>
    <desc>Created with Sketch.</desc>
    <g id="💻-UI-design-(desktop)" stroke="none" stroke-width="1" fill="none" fill-rule="evenodd">
        <g id="2.-Results_no-one-selected_5-steps" transform="translate(-442.000000, -477.000000)" fill="#F05971" fill-rule="nonzero">
            <g id="content" transform="translate(80.000000, 142.000000)">
                <g id="Group-17" transform="translate(327.000000, 103.000000)">
                    <g id="Group-20">
                        <g id="Group-10" transform="translate(0.000000, 48.000000)">
                            <g id="Group-10-Copy-2">
                                <g id="card/trip">
                                    <g id="Group-7-Copy-5">
                                        <g id="Group-7" transform="translate(20.000000, 165.000000)">
                                            <path d="M22.5,19 C18.356267,19 15,22.356267 15,26.5 C15,30.643733 18.356267,34 22.5,34 C26.643733,34 30.0000352,30.6437682 30.0000352,26.5 C30.0000352,22.3562318 26.6437682,19 22.5,19 Z M23.2500246,30.2500176 L21.7500105,30.2500176 L21.7500105,25.7500105 L23.2500246,25.7500105 L23.2500246,30.2500176 Z M23.2500246,24.2499965 L21.7500105,24.2499965 L21.7500105,22.7499824 L23.2500246,22.7499824 L23.2500246,24.2499965 Z" id="Shape" transform="translate(22.500018, 26.500000) rotate(-180.000000) translate(-22.500018, -26.500000) "></path>
                                        </g>
                                    </g>
                                </g>
                            </g>
                        </g>
                    </g>
                </g>
            </g>
        </g>
    </g>
</svg>