<?xml version="1.0"?>
<svg xmlns="http://www.w3.org/2000/svg" xmlns:xlink="http://www.w3.org/1999/xlink" version="1.1" viewBox="0 0 192 192" width="50px" height="50px"><g transform=""><g fill="none" fill-rule="nonzero" stroke="none" stroke-width="1" stroke-linecap="butt" stroke-linejoin="miter" stroke-miterlimit="10" stroke-dasharray="" stroke-dashoffset="0" font-family="none" font-weight="none" font-size="none" text-anchor="none" style="mix-blend-mode: normal"><path d="M0,192v-192h192v192z" fill="#29a2f2"/><g fill="#ffffff"><path d="M80.64,7.68c-6.31855,0 -11.52,5.20145 -11.52,11.52v7.68h-38.4c-1.38484,-0.01959 -2.67295,0.708 -3.37109,1.90415c-0.69814,1.19615 -0.69814,2.67555 0,3.8717c0.69814,1.19615 1.98625,1.92374 3.37109,1.90415h3.84v138.24c0,6.35136 5.16864,11.52 11.52,11.52h99.84c6.35136,0 11.52,-5.16864 11.52,-11.52v-138.24h3.84c1.38484,0.01959 2.67295,-0.708 3.37109,-1.90415c0.69814,-1.19615 0.69814,-2.67555 0,-3.8717c-0.69814,-1.19615 -1.98625,-1.92374 -3.37109,-1.90415h-38.4v-7.68c0,-6.31855 -5.20145,-11.52 -11.52,-11.52zM80.64,15.36h30.72c2.12945,0 3.84,1.71055 3.84,3.84v7.68h-38.4v-7.68c0,-2.12945 1.71055,-3.84 3.84,-3.84zM72.96,53.76c2.11968,0 3.84,1.72032 3.84,3.84v96c0,2.12352 -1.72032,3.84 -3.84,3.84c-2.11968,0 -3.84,-1.71648 -3.84,-3.84v-96c0,-2.11968 1.72032,-3.84 3.84,-3.84zM96,53.76c2.11968,0 3.84,1.72032 3.84,3.84v96c0,2.12352 -1.72032,3.84 -3.84,3.84c-2.11968,0 -3.84,-1.71648 -3.84,-3.84v-96c0,-2.11968 1.72032,-3.84 3.84,-3.84zM119.04,53.76c2.12352,0 3.84,1.72032 3.84,3.84v96c0,2.12352 -1.71648,3.84 -3.84,3.84c-2.12352,0 -3.84,-1.71648 -3.84,-3.84v-96c0,-2.11968 1.71648,-3.84 3.84,-3.84z"/></g><path d="" fill="none"/><path d="M96,183.36c-48.2476,0 -87.36,-39.1124 -87.36,-87.36v0c0,-48.2476 39.1124,-87.36 87.36,-87.36h0c48.2476,0 87.36,39.1124 87.36,87.36v0c0,48.2476 -39.1124,87.36 -87.36,87.36z" fill="none"/><path d="M96,179.52c-46.12682,0 -83.52,-37.39318 -83.52,-83.52v0c0,-46.12682 37.39318,-83.52 83.52,-83.52h0c46.12682,0 83.52,37.39318 83.52,83.52v0c0,46.12682 -37.39318,83.52 -83.52,83.52z" fill="none"/></g></g></svg>
