<?xml version="1.0" encoding="UTF-8"?>
<svg width="12px" height="12px" viewBox="0 0 12 12" version="1.1" xmlns="http://www.w3.org/2000/svg" xmlns:xlink="http://www.w3.org/1999/xlink">
    <!-- Generator: Sketch 49.1 (51147) - http://www.bohemiancoding.com/sketch -->
    <title>Undo</title>
    <desc>Created with Sketch.</desc>
    <defs></defs>
    <g id="ðŸ“-MVP" stroke="none" stroke-width="1" fill="none" fill-rule="evenodd">
        <g id="Destinations_deselected" transform="translate(-1187.000000, -465.000000)" fill="#9EA7B7">
            <g id="Group-18" transform="translate(80.000000, 446.000000)">
                <g id="Group">
                    <g id="Group-7-Copy-9">
                        <g transform="translate(1087.000000, 0.000000)">
                            <g id="Group-2" transform="translate(20.000000, 16.000000)">
                                <g id="Group-17">
                                    <g id="Group-12">
                                        <path d="M11.29,8.64499998 C11.29,11.7541601 8.75416013,14.29 5.64499998,14.29 C3.96179035,14.29 2.37413411,13.5476237 1.30099609,12.2539778 C1.22749349,12.1584244 1.23484375,12.0187695 1.31569661,11.9379166 L2.32268228,10.9235807 C2.37413411,10.8794791 2.44028645,10.8574284 2.50643879,10.8574284 C2.57259114,10.8647786 2.63874348,10.8941797 2.67549478,10.9456315 C3.3958203,11.8791146 4.47630858,12.4083333 5.64499998,12.4083333 C7.71777341,12.4083333 9.4083333,10.7177734 9.4083333,8.64499998 C9.4083333,6.57222655 7.71777341,4.88166666 5.64499998,4.88166666 C4.68211587,4.88166666 3.77068358,5.24917968 3.08710936,5.88865233 L4.09409504,6.90298827 C4.23374999,7.03529296 4.27050129,7.24110025 4.19699868,7.41015624 C4.12349608,7.58656248 3.95444009,7.70416665 3.76333332,7.70416665 L0.470416665,7.70416665 C0.213157551,7.70416665 0,7.4910091 0,7.23374999 L0,3.94083333 C0,3.74972656 0.117604166,3.58067057 0.294010416,3.50716797 C0.463066405,3.43366536 0.668873696,3.47041667 0.801178383,3.61007161 L1.75671223,4.5582552 C2.79309895,3.58067057 4.19699868,3 5.64499998,3 C8.75416013,3 11.29,5.53583984 11.29,8.64499998 Z" id="Undo"></path>
                                    </g>
                                </g>
                            </g>
                        </g>
                    </g>
                </g>
            </g>
        </g>
    </g>
</svg>